<svg width="1024" height="184" viewBox="0 0 1024 184" fill="none" xmlns="http://www.w3.org/2000/svg">
<rect width="1024" height="184" fill="#202020"/>
<path d="M428 47.1234C425 72.7901 420.8 123.223 428 119.623C437 115.123 454.5 85.1234 460.5 66.1234C466.5 47.1234 399.5 127.123 373.5 128.123" stroke="#D2D2D2" stroke-width="6"/>
<path d="M372 134.623C377.333 142.123 395.9 135.123 427.5 47.1234" stroke="#C1C1C1" stroke-width="7"/>
<path d="M452.719 120.686V85.6703H459.562V89.9359H459.844C460.805 87.8734 462.82 85.3422 467.109 85.3422C472.734 85.3422 477.445 89.7015 477.422 98.4203C477.445 106.928 472.922 111.545 467.109 111.545C462.961 111.545 460.828 109.155 459.844 107.045H459.656V120.686H452.719ZM459.516 98.3734C459.492 102.967 461.461 105.991 464.906 106.014C468.445 105.991 470.367 102.873 470.344 98.3734C470.367 93.9437 468.492 90.8734 464.906 90.8734C461.438 90.8734 459.492 93.8031 459.516 98.3734ZM481.922 120.686V85.6703H488.766V89.9359H489.047C490.008 87.8734 492.023 85.3422 496.312 85.3422C501.938 85.3422 506.648 89.7015 506.625 98.4203C506.648 106.928 502.125 111.545 496.312 111.545C492.164 111.545 490.031 109.155 489.047 107.045H488.859V120.686H481.922ZM488.719 98.3734C488.695 102.967 490.664 105.991 494.109 106.014C497.648 105.991 499.57 102.873 499.547 98.3734C499.57 93.9437 497.695 90.8734 494.109 90.8734C490.641 90.8734 488.695 93.8031 488.719 98.3734ZM518.062 77.1859V111.123H511.125V77.1859H518.062ZM523.453 111.123V85.6703H530.391V111.123H523.453ZM523.125 78.8265C523.125 76.8578 524.836 75.2875 526.922 75.264C528.984 75.2875 530.695 76.8578 530.672 78.8265C530.695 80.7484 528.984 82.3422 526.922 82.3422C524.836 82.3422 523.125 80.7484 523.125 78.8265ZM547.219 111.639C539.414 111.616 534.727 106.225 534.75 98.4672C534.727 90.6859 539.508 85.3422 547.219 85.3422C553.781 85.3422 558.234 89.1625 558.516 94.9984H552C551.578 92.4906 549.938 90.7562 547.312 90.7328C543.984 90.7562 541.781 93.5453 541.781 98.3734C541.781 103.295 543.938 106.108 547.312 106.108C549.75 106.108 551.555 104.584 552 101.889H558.516C558.211 107.655 553.969 111.616 547.219 111.639ZM561.609 103.998C561.633 98.3265 566.18 96.475 571.078 96.1703C572.906 96.0531 576.328 95.889 577.406 95.8422V93.7797C577.383 91.6469 575.93 90.4281 573.328 90.4047C570.961 90.4281 569.484 91.4828 569.109 93.2172H562.5C562.922 88.8109 566.766 85.3422 573.516 85.3422C579.07 85.3422 584.32 87.8265 584.297 93.9672V111.123H577.734V107.608H577.547C576.305 109.952 573.867 111.616 570.094 111.592C565.219 111.616 561.633 109.037 561.609 103.998ZM568.266 103.811C568.266 105.756 569.836 106.787 572.062 106.811C575.227 106.787 577.43 104.725 577.406 102.03V100.178C576.352 100.225 573.375 100.389 572.203 100.483C569.789 100.694 568.266 101.842 568.266 103.811ZM603 85.6703V90.8734H598.219V103.295C598.195 105.334 599.203 105.827 600.609 105.873C601.312 105.873 602.531 105.803 603.375 105.733V111.217C602.625 111.334 601.383 111.475 599.672 111.452C594.656 111.475 591.234 109.225 591.281 104.28V90.8734H587.766V85.6703H591.281V79.5765H598.219V85.6703H603ZM618.516 111.639C610.828 111.616 606.023 106.342 606.047 98.4672C606.023 90.6156 610.828 85.3422 618.516 85.3422C626.227 85.3422 631.008 90.6156 631.031 98.4672C631.008 106.342 626.227 111.616 618.516 111.639ZM613.078 98.4672C613.078 102.92 614.93 106.225 618.562 106.248C622.102 106.225 623.977 102.92 623.953 98.4672C623.977 93.9906 622.102 90.639 618.562 90.639C614.93 90.639 613.078 93.9906 613.078 98.4672ZM635.391 111.123V85.6703H642.094V90.0765H642.375C643.289 86.9594 645.656 85.2953 648.516 85.2953C649.219 85.2953 650.109 85.389 650.719 85.5297V91.7172C650.062 91.5062 648.727 91.3422 647.766 91.3422C644.625 91.3422 642.305 93.5219 642.328 96.639V111.123H635.391Z" fill="#D2D2D2"/>
</svg>
